<?xml version="1.0" encoding="utf-8"?>
<!-- Generator: Adobe Illustrator 19.0.0, SVG Export Plug-In . SVG Version: 6.00 Build 0)  -->
<svg version="1.1" id="Capa_1" xmlns="http://www.w3.org/2000/svg" xmlns:xlink="http://www.w3.org/1999/xlink" x="0px" y="0px"
	 viewBox="0 0 892 186" style="enable-background:new 0 0 892 186;" xml:space="preserve">
<style type="text/css">
	.st0{fill:#309DCD;}
	.st1{fill:#FFFFFF;}
</style>
<path class="st0" d="M633.2-158.3c-7.1-4-16.8-8.2-27.2-11.8c-10-3.5-19.7-6.1-27.5-7.4c-0.1-7.7-2.6-14.2-8.1-15.2
	c-2-0.4-4,0.1-5.7,1.1c1.7-37.2-24-71.1-61.6-78.5c-41.4-8.1-81.6,18.9-89.8,60.2c-8.1,41.4,18.9,81.6,60.2,89.8
	c32.8,6.5,64.9-9.2,80.9-36.6c1.1,4.5,3.5,7.8,7.2,8.5c5.4,1.1,10-3.8,13.1-10.6c6.6,3.4,15,6.9,23.9,10c10.7,3.7,21,6.4,29.1,7.7
	c4.1,0.6,7.5,0.8,10,0.7c3.9-0.3,6.3-1.7,7.2-4.1c0.1-0.2,0.1-0.5,0.2-0.7C645.8-149.4,642.3-153.2,633.2-158.3z M551.3-182.8
	c-6.8,34.8-40.7,57.5-75.4,50.6c-19-3.8-34.5-15.6-43.4-31.3c0.7-1,1.6-2.3,2.5-3.8c0,0,5.2-8.4,7.3-11.9
	c5.9,6.7,15.9,10.1,29.7,10.1c1.8,0,3.7-0.1,5.6-0.2c18.6-1.1,37.3-11.3,52.7-28.8c1-1.1,1.1-2.6,0.4-4.2c-0.7-1.6-2.5-3.3-4.2-3.3
	c-0.7,0-1.4,0.3-1.8,0.8c-14,15.8-29.7,24.7-46.8,26.4c-7.2,0.7-14.3,0.1-20.6-1.8c-4.9-1.5-7.1-2.5-10.2-6.6l1.8-2.8
	c4.5-7,8.3-13.1,12.3-20.6c2.5-4.7,3-8.7,1.4-11.8c-1.4-2.7-4.5-4.6-8.3-5c-0.4,0-0.7-0.1-1.1-0.1c-6.6,0-13.9,6.2-17.8,15
	c-5,11.4-0.9,19.5,2.2,25.5c0.1,0.3,0.3,0.5,0.4,0.8c-1.9,3.2-8.6,14.3-8.9,14.8c0,0-0.1,0.1-0.1,0.1c-4.6-11.3-6.2-24-3.6-36.8
	c6.8-34.8,40.7-57.5,75.4-50.6c17.3,3.4,31.6,13.5,40.8,27.1c-0.7,0.2-1.2,0.6-1.6,0.9c-4,3.3-8.6,6.1-13,8.9
	c-1.4,0.9-2.9,1.8-4.3,2.7c-3.3,2.1-6.6,4.2-9.9,6.3c-3.3,2.1-6.7,4.2-10,6.3c-1.6,1-3.3,3.9-0.5,6.4c0.3,0.2,0.6,0.5,0.9,0.7
	c2.8,1.7,5.4,0.7,7.2-0.4c3.5-2.2,6.9-4.4,10.4-6.6c3-1.9,6.1-3.9,9.1-5.8c1.4-0.9,2.8-1.8,4.2-2.7c1.2-0.8,2.5-1.6,3.8-2.4
	c-1.8,13.8-8,27.6-17.9,40.1c-0.7,0.9-0.8,1.8-0.4,2.7c0.3,0.6,0.8,1.1,1.5,1.5c0.8,0.5,1.7,0.7,2.7,0.7c2.3-0.1,4.8-1.2,6-2.8
	c7.7-9.6,16.6-24.2,19.2-42C552.5-206.1,553.6-194.5,551.3-182.8z M441.1-205.8c1.4-6,7.1-14.3,10.9-14.3c0.2,0,0.3,0,0.5,0
	c0.9,0.2,1.7,0.7,2.2,1.5c0.6,0.9,0.7,2.2,0.4,3.7c-0.3,1.3-0.9,2.9-2,4.7l-4.7,7.6l-1.7,2.8c-1.5,2.3-2.9,4.7-4.4,7
	C440.8-196.3,439.8-200.4,441.1-205.8z M570.8-170c-2.1,7.7-5.9,13.4-8.4,12.7c-2.5-0.7-2.8-7.5-0.6-15.2c2.2-7.7,5.9-13.4,8.4-12.7
	C572.7-184.5,573-177.7,570.8-170z M641.7-146.5c-0.5,2.3-3.3,4-7.6,4.8c2.4-1.1,3.9-2.7,4.4-4.6c0.9-4.1-3.7-8.9-11.4-12.7
	C636.5-155.4,642.6-150.5,641.7-146.5z"/>
<g>
	<path class="st0" d="M292-207.4v61.1h-11.7v-61.1h-32.2v-9.6h76.2v9.6H292z"/>
	<path class="st0" d="M347.7-204.3v49.3h42.2v-49.3H401v44.3c0,5.4-1,9-3,10.9c-2,1.9-5.7,2.8-11.2,2.8H351c-5.5,0-9.2-1-11.2-2.9
		c-2-1.9-3-5.5-3-10.8v-44.3H347.7z"/>
</g>
<g>
	<path class="st0" d="M237.9-57.8l38.3-70.7h12.6l39,70.7h-12.9l-9-17.4h-47.5l-9,17.4H237.9z M263.4-84.2h37.8l-18.9-36.2
		L263.4-84.2z"/>
	<path class="st0" d="M383.4-115.8c5.5,0,10.1,0.4,13.9,1.1c3.7,0.7,6.8,1.9,9.3,3.4c3.9,2.5,7,5.9,9.2,10.2c2.2,4.3,3.3,9,3.3,14.2
		c0,9.8-2.9,17.1-8.8,21.9c-5.9,4.8-14.8,7.3-26.8,7.3h-33.2v-58H383.4z M382.2-107.2h-21.1v40.7h21.1c9.4,0,16.1-1.6,20-4.8
		c4-3.2,5.9-8.4,5.9-15.7c0-7.1-2-12.3-6-15.4C398.1-105.6,391.5-107.2,382.2-107.2z"/>
	<path class="st0" d="M453.6-105.1c0,0.8,0,2,0.1,3.5c0.1,2.4,0.1,3.9,0.1,4.6v39.2h-9v-58h9l28.7,37.7l26.4-37.7h10.1v58H509V-97
		c0-1.4,0.1-2.8,0.2-4.1c0.1-1.3,0.3-2.6,0.5-3.9c-0.6,1.8-1.3,3.4-1.9,4.8c-0.7,1.4-1.3,2.5-1.9,3.2l-22.2,30h-2.9l-23-29.8
		c-0.8-1-1.6-2.2-2.3-3.6C454.8-101.7,454.2-103.3,453.6-105.1z"/>
	<path class="st0" d="M556.5-57.8h-10.8v-57.9h10.8V-57.8z"/>
	<path class="st0" d="M592.2-104.2c0.3,1.7,0.5,3.4,0.6,5.1c0.1,1.7,0.2,3.5,0.2,5.2v36h-10v-58h8.3l42.3,37.9
		c1.2,1.1,2.4,2.3,3.6,3.5c1.1,1.3,2.2,2.8,3.4,4.4c-0.3-1.7-0.5-3.5-0.7-5.3c-0.2-1.8-0.2-3.6-0.2-5.6v-35h10v58h-7.4L599-96.3
		c-1.5-1.4-2.8-2.8-3.9-4C594-101.6,593-102.9,592.2-104.2z"/>
</g>
<path class="st0" d="M1209.2-158.3c-7.1-4-16.8-8.2-27.2-11.8c-10-3.5-19.7-6.1-27.5-7.4c-0.1-7.7-2.6-14.2-8.1-15.2
	c-2-0.4-4,0.1-5.7,1.1c1.7-37.2-24-71.1-61.6-78.5c-41.4-8.1-81.6,18.9-89.8,60.2c-8.1,41.4,18.9,81.6,60.2,89.8
	c32.8,6.5,64.9-9.2,80.9-36.6c1.1,4.5,3.5,7.8,7.2,8.5c5.4,1.1,10-3.8,13.1-10.6c6.6,3.4,15,6.9,23.9,10c10.7,3.7,21,6.4,29.1,7.7
	c4.1,0.6,7.5,0.8,10,0.7c3.9-0.3,6.3-1.7,7.2-4.1c0.1-0.2,0.1-0.5,0.2-0.7C1221.8-149.4,1218.3-153.2,1209.2-158.3z M1127.3-182.8
	c-6.8,34.8-40.7,57.5-75.4,50.6c-19-3.8-34.5-15.6-43.4-31.3c0.7-1,1.6-2.3,2.5-3.8c0,0,5.2-8.4,7.3-11.9
	c5.9,6.7,15.9,10.1,29.7,10.1c1.8,0,3.7-0.1,5.6-0.2c18.6-1.1,37.3-11.3,52.7-28.8c1-1.1,1.1-2.6,0.4-4.2c-0.7-1.6-2.5-3.3-4.2-3.3
	c-0.7,0-1.4,0.3-1.8,0.8c-14,15.8-29.7,24.7-46.8,26.4c-7.2,0.7-14.3,0.1-20.6-1.8c-4.9-1.5-7.1-2.5-10.2-6.6l1.8-2.8
	c4.5-7,8.3-13.1,12.3-20.6c2.5-4.7,3-8.7,1.4-11.8c-1.4-2.7-4.5-4.6-8.3-5c-0.4,0-0.7-0.1-1.1-0.1c-6.6,0-13.9,6.2-17.8,15
	c-5,11.4-0.9,19.5,2.2,25.5c0.1,0.3,0.3,0.5,0.4,0.8c-1.9,3.2-8.6,14.3-8.9,14.8c0,0-0.1,0.1-0.1,0.1c-4.6-11.3-6.2-24-3.6-36.8
	c6.8-34.8,40.7-57.5,75.4-50.6c17.3,3.4,31.6,13.5,40.8,27.1c-0.7,0.2-1.2,0.6-1.6,0.9c-4,3.3-8.6,6.1-13,8.9
	c-1.4,0.9-2.9,1.8-4.3,2.7c-3.3,2.1-6.6,4.2-9.9,6.3c-3.3,2.1-6.7,4.2-10,6.3c-1.6,1-3.3,3.9-0.5,6.4c0.3,0.2,0.6,0.5,0.9,0.7
	c2.8,1.7,5.4,0.7,7.2-0.4c3.5-2.2,6.9-4.4,10.4-6.6c3-1.9,6.1-3.9,9.1-5.8c1.4-0.9,2.8-1.8,4.2-2.7c1.2-0.8,2.5-1.6,3.8-2.4
	c-1.8,13.8-8,27.6-17.9,40.1c-0.7,0.9-0.8,1.8-0.4,2.7c0.3,0.6,0.8,1.1,1.5,1.5c0.8,0.5,1.7,0.7,2.7,0.7c2.3-0.1,4.8-1.2,6-2.8
	c7.7-9.6,16.6-24.2,19.2-42C1128.5-206.1,1129.6-194.5,1127.3-182.8z M1017.1-205.8c1.4-6,7.1-14.3,10.9-14.3c0.2,0,0.3,0,0.5,0
	c0.9,0.2,1.7,0.7,2.2,1.5c0.6,0.9,0.8,2.2,0.4,3.7c-0.3,1.3-0.9,2.9-2,4.7l-4.7,7.6l-1.7,2.8c-1.5,2.3-2.9,4.7-4.4,7
	C1016.8-196.3,1015.8-200.4,1017.1-205.8z M1146.8-170c-2.1,7.7-5.9,13.4-8.4,12.7c-2.5-0.7-2.8-7.5-0.6-15.2
	c2.2-7.7,5.9-13.4,8.4-12.7C1148.7-184.5,1149-177.7,1146.8-170z M1217.7-146.5c-0.5,2.3-3.3,4-7.6,4.8c2.4-1.1,3.9-2.7,4.4-4.6
	c0.9-4.1-3.7-8.9-11.4-12.7C1212.5-155.4,1218.6-150.5,1217.7-146.5z"/>
<text transform="matrix(0.9961 0 0 1 822.3926 -146.2998)" class="st0" style="font-family:'BankGothicBT-Light'; font-size:136.9587px;">Tu</text>
<text transform="matrix(0.9937 0 0 1 809.3926 -57.7998)" class="st0" style="font-family:'BankGothicBT-Light'; font-size:136.9587px;">Admin</text>
<path class="st1" d="M860.9,128.7c-7.1-4-16.8-8.2-27.2-11.8c-10-3.5-19.7-6.1-27.5-7.4c-0.1-7.7-2.6-14.2-8.1-15.2
	c-2-0.4-4,0.1-5.7,1.1c1.7-37.2-24-71.1-61.6-78.5C689.4,8.6,649.1,35.6,641,77c-8.1,41.4,18.9,81.6,60.2,89.8
	c32.8,6.5,64.9-9.2,80.9-36.6c1.1,4.5,3.5,7.8,7.2,8.5c5.4,1.1,10-3.8,13.1-10.6c6.6,3.4,15,6.9,23.9,10c10.7,3.7,21,6.4,29.1,7.7
	c4.1,0.6,7.5,0.8,10,0.7c3.9-0.3,6.3-1.7,7.2-4.1c0.1-0.2,0.1-0.5,0.2-0.7C873.5,137.6,870,133.8,860.9,128.7z M779,104.2
	c-6.8,34.8-40.7,57.5-75.4,50.6c-19-3.8-34.5-15.6-43.4-31.3c0.7-1,1.6-2.3,2.5-3.8c0,0,5.2-8.4,7.3-11.9
	c5.9,6.7,15.9,10.1,29.7,10.1c1.8,0,3.7-0.1,5.6-0.2c18.6-1.1,37.3-11.3,52.7-28.8c1-1.1,1.1-2.6,0.4-4.2c-0.7-1.6-2.5-3.3-4.2-3.3
	c-0.7,0-1.4,0.3-1.8,0.8c-14,15.8-29.7,24.7-46.8,26.4c-7.2,0.7-14.3,0.1-20.6-1.8c-4.9-1.5-7.1-2.5-10.2-6.6l1.8-2.8
	c4.5-7,8.3-13.1,12.3-20.6c2.5-4.7,3-8.7,1.4-11.8c-1.4-2.7-4.5-4.6-8.3-5c-0.4,0-0.7-0.1-1.1-0.1c-6.6,0-13.9,6.2-17.8,15
	c-5,11.4-0.9,19.5,2.2,25.5c0.1,0.3,0.3,0.5,0.4,0.8c-1.9,3.2-8.6,14.3-8.9,14.8c0,0-0.1,0.1-0.1,0.1c-4.6-11.3-6.2-24-3.6-36.8
	c6.8-34.8,40.7-57.5,75.4-50.6c17.3,3.4,31.6,13.5,40.8,27.1c-0.7,0.2-1.2,0.6-1.6,0.9c-4,3.3-8.6,6.1-13,8.9
	c-1.4,0.9-2.9,1.8-4.3,2.7c-3.3,2.1-6.6,4.2-9.9,6.3c-3.3,2.1-6.7,4.2-10,6.3c-1.6,1-3.3,3.9-0.5,6.4c0.3,0.2,0.6,0.5,0.9,0.7
	c2.8,1.7,5.4,0.7,7.2-0.4c3.5-2.2,6.9-4.4,10.4-6.6c3-1.9,6.1-3.9,9.1-5.8c1.4-0.9,2.8-1.8,4.2-2.7c1.2-0.8,2.5-1.6,3.8-2.4
	c-1.8,13.8-8,27.6-17.9,40.1c-0.7,0.9-0.8,1.8-0.4,2.7c0.3,0.6,0.8,1.1,1.5,1.5c0.8,0.5,1.7,0.7,2.7,0.7c2.3-0.1,4.8-1.2,6-2.8
	c7.7-9.6,16.6-24.2,19.2-42C780.3,80.9,781.3,92.5,779,104.2z M668.8,81.2c1.4-6,7.1-14.3,10.9-14.3c0.2,0,0.3,0,0.5,0
	c0.9,0.2,1.7,0.7,2.2,1.5c0.6,0.9,0.7,2.2,0.4,3.7c-0.3,1.3-0.9,2.9-2,4.7l-4.7,7.6l-1.7,2.8c-1.5,2.3-2.9,4.7-4.4,7
	C668.5,90.7,667.6,86.6,668.8,81.2z M798.6,117c-2.1,7.7-5.9,13.4-8.4,12.7c-2.5-0.7-2.8-7.5-0.6-15.2c2.2-7.7,5.9-13.4,8.4-12.7
	C800.5,102.5,800.7,109.3,798.6,117z M869.4,140.5c-0.5,2.3-3.3,4-7.6,4.8c2.4-1.1,3.9-2.7,4.4-4.6c0.9-4.1-3.7-8.9-11.4-12.7
	C864.2,131.6,870.3,136.5,869.4,140.5z"/>
<g>
	<path class="st1" d="M75.5,92.8v75.5H61V92.8H21.2V80.9h94.2v11.9H75.5z"/>
	<path class="st1" d="M128.2,96.5v60.9h52.2V96.5h13.7v54.8c0,6.6-1.2,11.1-3.7,13.4c-2.4,2.3-7.1,3.5-13.9,3.5h-44.3
		c-6.8,0-11.4-1.2-13.9-3.6c-2.4-2.4-3.7-6.8-3.7-13.4V96.5H128.2z"/>
</g>
<g>
	<path class="st1" d="M198.4,168.2l47.4-87.4h15.5l48.2,87.4h-15.9l-11.1-21.5h-58.7l-11.1,21.5H198.4z M229.9,135.6h46.7
		l-23.4-44.7L229.9,135.6z"/>
	<path class="st1" d="M355.5,96.5c6.8,0,12.5,0.5,17.1,1.4c4.6,0.9,8.4,2.3,11.5,4.2c4.9,3.1,8.7,7.3,11.4,12.6
		c2.7,5.3,4.1,11.2,4.1,17.6c0,12.1-3.6,21.1-10.9,27.1c-7.3,6-18.3,9-33.2,9h-41.1V96.5H355.5z M354,107.1h-26.1v50.3H354
		c11.6,0,19.9-2,24.8-5.9c4.9-3.9,7.4-10.4,7.4-19.5c0-8.8-2.5-15.2-7.4-19.1C373.8,109.1,365.5,107.1,354,107.1z"/>
	<path class="st1" d="M419.6,109.8c0,1,0.1,2.5,0.2,4.3c0.1,3,0.2,4.9,0.2,5.7v48.4h-11.1V96.5H420l35.5,46.5l32.6-46.5h12.5v71.8
		h-12.5v-48.4c0-1.8,0.1-3.5,0.2-5.1c0.1-1.7,0.3-3.3,0.6-4.8c-0.8,2.3-1.6,4.3-2.4,6c-0.8,1.7-1.6,3-2.3,3.9l-27.4,37.1h-3.5
		l-28.4-36.8c-1-1.3-1.9-2.8-2.8-4.5C421.1,114,420.4,112,419.6,109.8z"/>
	<path class="st1" d="M524.1,168.2h-13.4V96.6h13.4V168.2z"/>
	<path class="st1" d="M545.5,110.9c0.3,2.1,0.6,4.2,0.7,6.4c0.2,2.1,0.2,4.3,0.2,6.4v44.6h-12.4V96.5h10.3l52.3,46.9
		c1.5,1.3,3,2.8,4.4,4.4c1.4,1.6,2.8,3.4,4.1,5.5c-0.4-2.1-0.7-4.3-0.9-6.5c-0.2-2.2-0.3-4.5-0.3-6.9V96.5h12.4v71.8h-9.2
		l-53.4-47.5c-1.9-1.8-3.5-3.4-4.8-5C547.7,114.1,546.5,112.5,545.5,110.9z"/>
</g>
</svg>
